<mxfile host="app.diagrams.net" agent="Mozilla/5.0 (Windows NT 10.0; Win64; x64) AppleWebKit/537.36 (KHTML, like Gecko) Chrome/139.0.0.0 Safari/537.36 Edg/139.0.0.0" version="28.0.7">
  <diagram name="Page-1" id="ZjC9PL3zznuGELpjR5sy">
    <mxGraphModel dx="1366" dy="1049" grid="1" gridSize="10" guides="1" tooltips="1" connect="1" arrows="1" fold="1" page="1" pageScale="1" pageWidth="850" pageHeight="1100" math="0" shadow="0">
      <root>
        <mxCell id="0" />
        <mxCell id="1" parent="0" />
        <mxCell id="wM-mvtgXJQTrLWyvoCJN-34" value="" style="rounded=0;whiteSpace=wrap;html=1;" vertex="1" parent="1">
          <mxGeometry x="10" y="10" width="830" height="880" as="geometry" />
        </mxCell>
        <mxCell id="wM-mvtgXJQTrLWyvoCJN-11" style="edgeStyle=orthogonalEdgeStyle;rounded=0;orthogonalLoop=1;jettySize=auto;html=1;entryX=0.5;entryY=0;entryDx=0;entryDy=0;" edge="1" parent="1" source="wM-mvtgXJQTrLWyvoCJN-1" target="wM-mvtgXJQTrLWyvoCJN-2">
          <mxGeometry relative="1" as="geometry" />
        </mxCell>
        <mxCell id="wM-mvtgXJQTrLWyvoCJN-1" value="&lt;font style=&quot;font-size: 20px;&quot;&gt;start&lt;/font&gt;" style="rounded=1;whiteSpace=wrap;html=1;" vertex="1" parent="1">
          <mxGeometry x="360" y="40" width="120" height="40" as="geometry" />
        </mxCell>
        <mxCell id="wM-mvtgXJQTrLWyvoCJN-12" style="edgeStyle=orthogonalEdgeStyle;rounded=0;orthogonalLoop=1;jettySize=auto;html=1;entryX=0.5;entryY=0;entryDx=0;entryDy=0;" edge="1" parent="1" source="wM-mvtgXJQTrLWyvoCJN-2" target="wM-mvtgXJQTrLWyvoCJN-3">
          <mxGeometry relative="1" as="geometry" />
        </mxCell>
        <mxCell id="wM-mvtgXJQTrLWyvoCJN-2" value="EdgeWork Plan::FindWork" style="rounded=0;whiteSpace=wrap;html=1;" vertex="1" parent="1">
          <mxGeometry x="360" y="120" width="120" height="40" as="geometry" />
        </mxCell>
        <mxCell id="wM-mvtgXJQTrLWyvoCJN-5" style="edgeStyle=orthogonalEdgeStyle;rounded=0;orthogonalLoop=1;jettySize=auto;html=1;entryX=0;entryY=0.5;entryDx=0;entryDy=0;" edge="1" parent="1" source="wM-mvtgXJQTrLWyvoCJN-3" target="wM-mvtgXJQTrLWyvoCJN-4">
          <mxGeometry relative="1" as="geometry" />
        </mxCell>
        <mxCell id="wM-mvtgXJQTrLWyvoCJN-6" value="Y" style="edgeLabel;html=1;align=center;verticalAlign=middle;resizable=0;points=[];" vertex="1" connectable="0" parent="wM-mvtgXJQTrLWyvoCJN-5">
          <mxGeometry x="0.04" y="1" relative="1" as="geometry">
            <mxPoint as="offset" />
          </mxGeometry>
        </mxCell>
        <mxCell id="wM-mvtgXJQTrLWyvoCJN-14" style="edgeStyle=orthogonalEdgeStyle;rounded=0;orthogonalLoop=1;jettySize=auto;html=1;entryX=0.5;entryY=0;entryDx=0;entryDy=0;" edge="1" parent="1" source="wM-mvtgXJQTrLWyvoCJN-3" target="wM-mvtgXJQTrLWyvoCJN-13">
          <mxGeometry relative="1" as="geometry" />
        </mxCell>
        <mxCell id="wM-mvtgXJQTrLWyvoCJN-15" value="N" style="edgeLabel;html=1;align=center;verticalAlign=middle;resizable=0;points=[];" vertex="1" connectable="0" parent="wM-mvtgXJQTrLWyvoCJN-14">
          <mxGeometry x="0.06" y="-1" relative="1" as="geometry">
            <mxPoint as="offset" />
          </mxGeometry>
        </mxCell>
        <mxCell id="wM-mvtgXJQTrLWyvoCJN-3" value="只能local" style="rhombus;whiteSpace=wrap;html=1;" vertex="1" parent="1">
          <mxGeometry x="320" y="200" width="200" height="80" as="geometry" />
        </mxCell>
        <mxCell id="wM-mvtgXJQTrLWyvoCJN-4" value="local_ready_.insert()" style="rounded=0;whiteSpace=wrap;html=1;" vertex="1" parent="1">
          <mxGeometry x="560" y="220" width="120" height="40" as="geometry" />
        </mxCell>
        <mxCell id="wM-mvtgXJQTrLWyvoCJN-10" value="能远程执行或缓存" style="text;html=1;align=center;verticalAlign=middle;whiteSpace=wrap;rounded=0;" vertex="1" parent="1">
          <mxGeometry x="420" y="280" width="120" height="40" as="geometry" />
        </mxCell>
        <mxCell id="wM-mvtgXJQTrLWyvoCJN-18" style="edgeStyle=orthogonalEdgeStyle;rounded=0;orthogonalLoop=1;jettySize=auto;html=1;entryX=0.5;entryY=0;entryDx=0;entryDy=0;" edge="1" parent="1" source="wM-mvtgXJQTrLWyvoCJN-13" target="wM-mvtgXJQTrLWyvoCJN-16">
          <mxGeometry relative="1" as="geometry" />
        </mxCell>
        <mxCell id="wM-mvtgXJQTrLWyvoCJN-13" value="return { edge, false/true }" style="rounded=0;whiteSpace=wrap;html=1;" vertex="1" parent="1">
          <mxGeometry x="360" y="320" width="120" height="40" as="geometry" />
        </mxCell>
        <mxCell id="wM-mvtgXJQTrLWyvoCJN-19" style="edgeStyle=orthogonalEdgeStyle;rounded=0;orthogonalLoop=1;jettySize=auto;html=1;entryX=0.5;entryY=0;entryDx=0;entryDy=0;" edge="1" parent="1" source="wM-mvtgXJQTrLWyvoCJN-16" target="wM-mvtgXJQTrLWyvoCJN-17">
          <mxGeometry relative="1" as="geometry" />
        </mxCell>
        <mxCell id="wM-mvtgXJQTrLWyvoCJN-16" value="remote excute" style="rounded=0;whiteSpace=wrap;html=1;" vertex="1" parent="1">
          <mxGeometry x="360" y="400" width="120" height="40" as="geometry" />
        </mxCell>
        <mxCell id="wM-mvtgXJQTrLWyvoCJN-21" style="edgeStyle=orthogonalEdgeStyle;rounded=0;orthogonalLoop=1;jettySize=auto;html=1;" edge="1" parent="1" source="wM-mvtgXJQTrLWyvoCJN-17" target="wM-mvtgXJQTrLWyvoCJN-20">
          <mxGeometry relative="1" as="geometry" />
        </mxCell>
        <mxCell id="wM-mvtgXJQTrLWyvoCJN-17" value="&lt;font style=&quot;font-size: 11px;&quot;&gt;FetchFromActionCache&lt;/font&gt;" style="rounded=0;whiteSpace=wrap;html=1;" vertex="1" parent="1">
          <mxGeometry x="360" y="480" width="120" height="40" as="geometry" />
        </mxCell>
        <mxCell id="wM-mvtgXJQTrLWyvoCJN-24" style="edgeStyle=orthogonalEdgeStyle;rounded=0;orthogonalLoop=1;jettySize=auto;html=1;entryX=0;entryY=0.5;entryDx=0;entryDy=0;" edge="1" parent="1" source="wM-mvtgXJQTrLWyvoCJN-20" target="wM-mvtgXJQTrLWyvoCJN-23">
          <mxGeometry relative="1" as="geometry" />
        </mxCell>
        <mxCell id="wM-mvtgXJQTrLWyvoCJN-25" value="Y" style="edgeLabel;html=1;align=center;verticalAlign=middle;resizable=0;points=[];" vertex="1" connectable="0" parent="wM-mvtgXJQTrLWyvoCJN-24">
          <mxGeometry x="-0.26" y="-1" relative="1" as="geometry">
            <mxPoint as="offset" />
          </mxGeometry>
        </mxCell>
        <mxCell id="wM-mvtgXJQTrLWyvoCJN-27" style="edgeStyle=orthogonalEdgeStyle;rounded=0;orthogonalLoop=1;jettySize=auto;html=1;entryX=0.5;entryY=0;entryDx=0;entryDy=0;" edge="1" parent="1" source="wM-mvtgXJQTrLWyvoCJN-20" target="wM-mvtgXJQTrLWyvoCJN-26">
          <mxGeometry relative="1" as="geometry" />
        </mxCell>
        <mxCell id="wM-mvtgXJQTrLWyvoCJN-20" value="cache" style="rhombus;whiteSpace=wrap;html=1;" vertex="1" parent="1">
          <mxGeometry x="320" y="560" width="200" height="80" as="geometry" />
        </mxCell>
        <mxCell id="wM-mvtgXJQTrLWyvoCJN-23" value="&lt;font style=&quot;font-size: 11px;&quot;&gt;获取cache&lt;/font&gt;" style="rounded=0;whiteSpace=wrap;html=1;" vertex="1" parent="1">
          <mxGeometry x="560" y="580" width="120" height="40" as="geometry" />
        </mxCell>
        <mxCell id="wM-mvtgXJQTrLWyvoCJN-29" style="edgeStyle=orthogonalEdgeStyle;rounded=0;orthogonalLoop=1;jettySize=auto;html=1;entryX=0;entryY=0.5;entryDx=0;entryDy=0;" edge="1" parent="1" source="wM-mvtgXJQTrLWyvoCJN-26" target="wM-mvtgXJQTrLWyvoCJN-28">
          <mxGeometry relative="1" as="geometry" />
        </mxCell>
        <mxCell id="wM-mvtgXJQTrLWyvoCJN-33" value="N" style="edgeLabel;html=1;align=center;verticalAlign=middle;resizable=0;points=[];" vertex="1" connectable="0" parent="wM-mvtgXJQTrLWyvoCJN-29">
          <mxGeometry x="-0.21" y="3" relative="1" as="geometry">
            <mxPoint y="3" as="offset" />
          </mxGeometry>
        </mxCell>
        <mxCell id="wM-mvtgXJQTrLWyvoCJN-31" style="edgeStyle=orthogonalEdgeStyle;rounded=0;orthogonalLoop=1;jettySize=auto;html=1;entryX=0.5;entryY=0;entryDx=0;entryDy=0;" edge="1" parent="1" source="wM-mvtgXJQTrLWyvoCJN-26" target="wM-mvtgXJQTrLWyvoCJN-30">
          <mxGeometry relative="1" as="geometry" />
        </mxCell>
        <mxCell id="wM-mvtgXJQTrLWyvoCJN-32" value="Y" style="edgeLabel;html=1;align=center;verticalAlign=middle;resizable=0;points=[];" vertex="1" connectable="0" parent="wM-mvtgXJQTrLWyvoCJN-31">
          <mxGeometry x="-0.14" relative="1" as="geometry">
            <mxPoint as="offset" />
          </mxGeometry>
        </mxCell>
        <mxCell id="wM-mvtgXJQTrLWyvoCJN-26" value="can remote?" style="rhombus;whiteSpace=wrap;html=1;" vertex="1" parent="1">
          <mxGeometry x="320" y="680" width="200" height="80" as="geometry" />
        </mxCell>
        <mxCell id="wM-mvtgXJQTrLWyvoCJN-28" value="&lt;span style=&quot;font-size: 11px;&quot;&gt;本地执行，上传cache&lt;/span&gt;" style="rounded=0;whiteSpace=wrap;html=1;" vertex="1" parent="1">
          <mxGeometry x="560" y="700" width="120" height="40" as="geometry" />
        </mxCell>
        <mxCell id="wM-mvtgXJQTrLWyvoCJN-30" value="&lt;span style=&quot;font-size: 11px;&quot;&gt;远程执行&lt;/span&gt;" style="rounded=0;whiteSpace=wrap;html=1;" vertex="1" parent="1">
          <mxGeometry x="360" y="800" width="120" height="40" as="geometry" />
        </mxCell>
      </root>
    </mxGraphModel>
  </diagram>
</mxfile>
